<?xml version="1.0" encoding="UTF-8"?>
<svg version="1.1" xmlns="http://www.w3.org/2000/svg" width="500" height="500">
<path d="M0 0 C1.57170921 1.46937756 3.13413107 2.94874708 4.6875 4.4375 C5.98880859 5.6440625 5.98880859 5.6440625 7.31640625 6.875 C36.60505384 34.87211405 52.42900755 74.94121886 53.8125 115.0625 C54.50307824 158.56892922 38.79326849 199.02505753 8.6875 230.4375 C7.4809375 231.73880859 7.4809375 231.73880859 6.25 233.06640625 C-4.67575523 244.49617697 -22.1420251 260.70158632 -38.3125 263.4375 C-38.3125 264.0975 -38.3125 264.7575 -38.3125 265.4375 C-69.2161143 278.52767724 -101.96621732 283.35914842 -135.3125 277.4375 C-137.07013672 277.128125 -137.07013672 277.128125 -138.86328125 276.8125 C-151.11895256 274.41316947 -162.81700855 270.27913052 -174.3125 265.4375 C-174.3125 264.7775 -174.3125 264.1175 -174.3125 263.4375 C-175.16714844 263.1796875 -176.02179688 262.921875 -176.90234375 262.65625 C-192.30471951 257.15162086 -205.61557784 245.50114931 -217.3125 234.4375 C-218.61960937 233.22707031 -218.61960937 233.22707031 -219.953125 231.9921875 C-249.22564104 203.97420786 -265.05368925 163.94301185 -266.4375 123.8125 C-267.12807824 80.30607078 -251.41826849 39.84994247 -221.3125 8.4375 C-220.508125 7.56996094 -219.70375 6.70242187 -218.875 5.80859375 C-160.79646986 -54.9491543 -61.63266376 -54.3417335 0 0 Z " fill="#E13D0D" transform="translate(356.3125,130.5625)"/>
<path d="M0 0 C0.89920166 0.00088623 1.79840332 0.00177246 2.72485352 0.00268555 C13.83524802 0.1949677 25.16182792 2.00172605 35 7.375 C35.28875 6.59125 35.5775 5.8075 35.875 5 C37 2.375 37 2.375 39 0.375 C41.03257992 0.82285659 43.06286663 1.28440838 45.078125 1.8046875 C49.94731392 2.75509068 54.89193982 2.78005519 59.83984375 2.93359375 C60.88269531 3.07925781 61.92554688 3.22492188 63 3.375 C65.13443685 6.57665527 65.24919995 7.3810284 65.24291992 11.05493164 C65.24753487 12.47770164 65.24753487 12.47770164 65.25224304 13.92921448 C65.24146477 15.46665565 65.24146477 15.46665565 65.23046875 17.03515625 C65.23001053 18.09480087 65.22955231 19.1544455 65.2290802 20.24620056 C65.22605633 22.49316524 65.21816603 24.7401278 65.20581055 26.98706055 C65.18770084 30.39965388 65.18529996 33.81197327 65.18554688 37.22460938 C65.18062558 39.41146065 65.17479461 41.59831009 65.16796875 43.78515625 C65.16685593 44.79594742 65.1657431 45.80673859 65.16459656 46.84815979 C65.05126513 64.08947506 65.05126513 64.08947506 61.87890625 67.96875 C58.35828296 69.68845744 55.84866668 69.90846453 51.9375 69.875 C50.12572266 69.89046875 50.12572266 69.89046875 48.27734375 69.90625 C45 69.375 45 69.375 42.6875 67.796875 C40.50476273 64.6642428 39.88021885 61.84807014 39.0625 58.125 C37.81010429 52.84401193 36.32037291 48.51331128 33.15234375 44.07421875 C32 42.375 32 42.375 30.5 38.6875 C28.13957018 33.47488414 24.28577861 29.60677319 19 27.375 C12.04316108 26.79235561 5.31361965 27.73139616 -1.5 29.0625 C-2.39203125 29.21138672 -3.2840625 29.36027344 -4.203125 29.51367188 C-6.58788684 29.9743645 -8.75615988 30.44451286 -11 31.375 C-12.54787661 33.73317526 -12.54787661 33.73317526 -13 36.375 C-13.86035641 37.46999907 -14.73554999 38.55349882 -15.625 39.625 C-19.77443759 45.90391436 -18.36769876 54.1844464 -18 61.375 C-17.34 61.375 -16.68 61.375 -16 61.375 C-15.74347656 62.05046875 -15.48695313 62.7259375 -15.22265625 63.421875 C-13.15627667 68.23646985 -11.68690896 71.62027034 -6.6875 73.6875 C-5.91277344 73.95949219 -5.13804687 74.23148437 -4.33984375 74.51171875 C-1.88665783 75.41681739 0.06750715 76.56838371 2.25 78 C7.13812488 81.13686754 11.14983062 82.57186441 16.9375 82.93359375 C19.70145271 83.52512151 21.62062709 84.8631443 24 86.375 C25.76773861 87.3183224 27.53867853 88.25566614 29.3125 89.1875 C40.23353942 95.18535809 48.54520479 103.3139501 57 112.375 C57.6909375 113.11492187 58.381875 113.85484375 59.09375 114.6171875 C67.04239339 124.71520895 67.73564674 140.9615689 66.66015625 153.26171875 C64.90717921 164.40973616 61.28876953 174.96961043 51.80078125 181.8828125 C48.60058542 183.89733763 45.37478399 185.67263748 42 187.375 C41.22011719 187.82617188 40.44023437 188.27734375 39.63671875 188.7421875 C32.81895764 192.58131511 26.97295586 191.58903918 19.6328125 189.765625 C18.61427689 189.5135025 18.61427689 189.5135025 17.57516479 189.25628662 C16.14724027 188.90048923 14.72033365 188.54058366 13.29443359 188.17675781 C11.140566 187.62895894 8.98289824 187.09878794 6.82421875 186.5703125 C-3.93690468 183.89392421 -12.87557981 181.45997443 -20.5625 173.125 C-21.36010742 172.29355469 -21.36010742 172.29355469 -22.17382812 171.4453125 C-23.46122305 170.09992681 -24.73243266 168.73908262 -26 167.375 C-26.268125 168.32375 -26.53625 169.2725 -26.8125 170.25 C-28 173.375 -28 173.375 -31 175.375 C-33.60125985 175.86488484 -36.12796122 176.25388412 -38.75 176.5625 C-39.4409375 176.65724609 -40.131875 176.75199219 -40.84375 176.84960938 C-46.78494549 177.58109115 -52.02060251 177.85954812 -57 174.125 C-59 171.375 -59 171.375 -58.65405273 169.13110352 C-58.43821533 168.22158936 -58.22237793 167.3120752 -58 166.375 C-57.81225239 164.09491147 -57.66085931 161.81169303 -57.53515625 159.52734375 C-57.45653711 158.18553767 -57.37775565 156.8437411 -57.29882812 155.50195312 C-57.18026277 153.41817314 -57.06368568 151.33432015 -56.95043945 149.25024414 C-55.74339449 127.31658753 -55.74339449 127.31658753 -52.5625 120.125 C-48.30661476 117.21854179 -43.97875199 118.00901684 -39 118.375 C-38.24589844 118.35050781 -37.49179688 118.32601562 -36.71484375 118.30078125 C-34.6875 118.3125 -34.6875 118.3125 -31 119.375 C-29.58886719 121.09594727 -29.58886719 121.09594727 -28.234375 123.31640625 C-24.92500021 128.5375198 -21.28942714 133.4462052 -17.5625 138.375 C-16.61793945 139.63183594 -16.61793945 139.63183594 -15.65429688 140.9140625 C-14.39563953 142.58537318 -13.13186093 144.25284033 -11.86279297 145.91625977 C-10.61982179 147.55688398 -9.3947748 149.2112415 -8.18798828 150.87866211 C-2.69840974 158.31798751 3.53649568 162.30370094 12.828125 163.84375 C19.08617134 164.06333057 24.9407718 162.64555067 30.95703125 161.03125 C34.06436357 160.36111928 36.83171422 160.26133952 40 160.375 C41.10078469 157.40288134 42.07719718 154.40706639 43 151.375 C43.27070313 150.48554688 43.54140625 149.59609375 43.8203125 148.6796875 C45.37415756 142.4107264 44.92364882 138.57935867 41.9453125 132.859375 C36.13624082 125.44056056 29.31948594 121.75734909 20.6875 118.3125 C11.53929542 114.58139594 2.9814099 110.2644501 -5.5625 105.3125 C-8.75597462 103.4265752 -8.75597462 103.4265752 -11.296875 102.40625 C-17.94865406 99.51417215 -21.93700569 95.63817441 -26.578125 90.09375 C-28.93135552 87.26619256 -28.93135552 87.26619256 -32.03515625 85.125 C-36.03092603 81.90190695 -37.41674858 77.56587495 -39.1875 72.875 C-39.84422158 71.19656872 -40.50428911 69.51944213 -41.16796875 67.84375 C-41.6311853 66.66752075 -41.6311853 66.66752075 -42.10375977 65.4675293 C-43.01576887 63.20598209 -43.01576887 63.20598209 -44.6640625 60.61328125 C-49.4682641 52.56413647 -49.02838616 39.52573238 -48 30.375 C-46.67926065 26.38480017 -44.68116712 23.58639793 -42 20.375 C-41.57074219 19.84745117 -41.14148438 19.31990234 -40.69921875 18.77636719 C-29.38273904 5.03604092 -17.87560229 -0.03230633 0 0 Z " fill="#FDFCFB" transform="translate(246,148.625)"/>
<path d="M0 0 C7.25544605 1.09931001 11.98523309 3.74643466 17 9 C18.50729341 10.18410798 20.02937626 11.34953194 21.5625 12.5 C24.92975904 15.06579573 27.43706246 17.61326111 30 21 C31.36125 22.0828125 31.36125 22.0828125 32.75 23.1875 C33.4925 23.785625 34.235 24.38375 35 25 C35 25.66 35 26.32 35 27 C35.66 27 36.32 27 37 27 C37 27.66 37 28.32 37 29 C37.66 29.33 38.32 29.66 39 30 C42.90424595 33.73362338 43.02524284 38.65515588 43.6875 43.75 C43.81415039 44.68070312 43.94080078 45.61140625 44.07128906 46.5703125 C45.29922543 56.23493295 46.24779574 66.42874074 44 76 C43.34 76 42.68 76 42 76 C41.814375 77.60875 41.814375 77.60875 41.625 79.25 C41.10356064 82.37863615 40.59911746 84.33480424 39 87 C38.34 87 37.68 87 37 87 C36.67 89.31 36.34 91.62 36 94 C35.34 94 34.68 94 34 94 C33.505 95.98 33.505 95.98 33 98 C32.38125 98.103125 31.7625 98.20625 31.125 98.3125 C28.63473516 98.87525373 28.63473516 98.87525373 27 102 C23.17861705 103.85279173 19.02500841 105.00701408 14.98828125 106.31640625 C12.96099426 106.96445733 12.96099426 106.96445733 11 108 C8.02647712 108.23580516 5.04436302 108.18517948 2.0625 108.1875 C1.23814453 108.19974609 0.41378906 108.21199219 -0.43554688 108.22460938 C-1.22896484 108.22654297 -2.02238281 108.22847656 -2.83984375 108.23046875 C-3.56550537 108.23457764 -4.29116699 108.23868652 -5.03881836 108.24291992 C-7 108 -7 108 -10 106 C-12.31660165 105.63661151 -14.60240747 105.49737882 -16.94140625 105.34375 C-19 105 -19 105 -21 103 C-22.010625 102.690625 -23.02125 102.38125 -24.0625 102.0625 C-25.031875 101.711875 -26.00125 101.36125 -27 101 C-27.33 100.01 -27.66 99.02 -28 98 C-30.16555171 97.11670229 -30.16555171 97.11670229 -32.75 96.5625 C-37.09101628 95.39873819 -39.50581002 93.83312701 -43 91 C-47.68487781 89.8164539 -47.68487781 89.8164539 -52.23828125 90.95703125 C-56.33360167 92.50363741 -60.39603086 92.4598317 -64.73632812 92.65429688 C-68.49274 92.78745385 -68.49274 92.78745385 -72 94 C-73.99960012 94.039992 -76.00047242 94.04346799 -78 94 C-78 93.34 -78 92.68 -78 92 C-78.99 92 -79.98 92 -81 92 C-81 91.34 -81 90.68 -81 90 C-81.99 89.67 -82.98 89.34 -84 89 C-83.67 87.68 -83.34 86.36 -83 85 C-82.649375 85.474375 -82.29875 85.94875 -81.9375 86.4375 C-78.25452035 89.40764488 -73.46663909 89.15186977 -68.921875 88.73046875 C-67.53003111 88.55910451 -66.13935173 88.37801745 -64.75 88.1875 C-64.04359375 88.10435547 -63.3371875 88.02121094 -62.609375 87.93554688 C-59.0654823 87.47578049 -57.02175131 87.01450088 -54 85 C-53.26656572 81.93443402 -53.26656572 81.93443402 -53 79 C-46.40370426 84.5193495 -46.40370426 84.5193495 -44.50390625 86.78125 C-36.68012959 96.047853 -22.22001422 97.54050608 -11 100.3125 C-9.92572754 100.5794165 -8.85145508 100.84633301 -7.74462891 101.12133789 C1.95033495 103.42709741 7.86617091 103.69485084 16.625 98.8125 C17.36234375 98.42513672 18.0996875 98.03777344 18.859375 97.63867188 C27.44344866 92.9851194 34.61772847 85.58975918 37.60400391 76.07568359 C41.30747241 61.29376664 41.25268594 44.75612824 34.4453125 30.81640625 C32.47730469 27.97419755 30.3668322 25.52119082 28 23 C27.50177734 22.44473633 27.00355469 21.88947266 26.49023438 21.31738281 C18.59946308 12.56193419 10.58748015 6.18110731 0 1 C0 0.67 0 0.34 0 0 Z " fill="#AB3617" transform="translate(272,236)"/>
<path d="M0 0 C1.99954746 -0.04254356 4.00041636 -0.04080783 6 0 C6.33 0.33 6.66 0.66 7 1 C10.55263449 1.13591375 14.09902001 1.24797585 17.65429688 1.25390625 C18.40388672 1.27839844 19.15347656 1.30289063 19.92578125 1.328125 C20.61067627 1.3374707 21.29557129 1.34681641 22.0012207 1.35644531 C25.35549266 2.4364332 26.27195289 3.94341846 28 7 C28.55426965 10.61174424 28.48890843 14.1732426 28.42578125 17.8203125 C28.42249313 18.87475555 28.41920502 19.92919861 28.41581726 21.01559448 C28.40008486 24.38581389 28.35608124 27.75503819 28.3125 31.125 C28.30100407 33.36978347 28.29122026 35.61457641 28.28320312 37.859375 C28.26976377 40.03386419 28.25483664 42.2083448 28.23828125 44.3828125 C28.23089432 45.38216827 28.22350739 46.38152405 28.21589661 47.41116333 C28.1507608 52.30347854 27.98313656 57.18049449 27.64526367 62.06201172 C27.58433029 62.94766815 27.52339691 63.83332458 27.46061707 64.74581909 C27 67 27 67 24.4375 69.625 C18.26877824 72.30592127 10.61534739 71.84116813 4 72 C3.67 71.01 3.34 70.02 3 69 C6.93809243 67.81492589 10.493626 68.04692574 14.5625 68.2578125 C17.68974076 67.92704665 18.78437014 67.23247984 21 65 C21.71087517 61.88381533 21.71087517 61.88381533 21.7421875 58.20703125 C21.77069794 57.51156693 21.79920837 56.8161026 21.82858276 56.0995636 C21.91367403 53.73290848 21.96177582 51.36786585 22 49 C22.02181335 47.71243805 22.02181335 47.71243805 22.04406738 46.39886475 C22.12518699 40.79436415 22.14277262 35.19119546 22.13037109 29.58618164 C22.12492421 26.6465967 22.13039655 23.70715897 22.13671875 20.76757812 C22.13605932 18.89062466 22.13478099 17.01367129 22.1328125 15.13671875 C22.13483673 14.26182297 22.13686096 13.38692719 22.13894653 12.48551941 C22.13579437 11.67649673 22.13264221 10.86747406 22.12939453 10.03393555 C22.12859894 9.32496628 22.12780334 8.61599701 22.12698364 7.88554382 C22.0641878 5.77295085 22.0641878 5.77295085 21 3 C19.98679687 3.02320313 18.97359375 3.04640625 17.9296875 3.0703125 C16.57813242 3.0890841 15.22656931 3.1072828 13.875 3.125 C13.20984375 3.14175781 12.5446875 3.15851563 11.859375 3.17578125 C7.50483944 3.21847278 4.04399886 2.59996217 0 1 C0 0.67 0 0.34 0 0 Z " fill="#C73C13" transform="translate(288,149)"/>
<path d="M0 0 C0.33 0 0.66 0 1 0 C1.37125 1.2375 1.7425 2.475 2.125 3.75 C3.79589361 8.78643761 6.09504764 13.38273743 8.54296875 18.08203125 C9.79746897 20.59439496 10.78190509 23.05850292 11.75 25.6875 C13.8531716 30.59787097 17.50054163 33.51568976 21.5625 36.859375 C24 39 24 39 26.01171875 41.60546875 C28.15414524 44.18564053 29.78363129 45.19354674 32.8125 46.5625 C36.34249352 48.21943573 39.74465319 49.95634582 43.12158203 51.91357422 C52.04323962 57.07361793 61.0904042 61.30473396 70.65820312 65.12304688 C80.44211409 69.20568353 87.39867659 74.67485918 92.1484375 84.3359375 C93.15288872 87.47830324 92.91725096 89.28998189 92.25 92.5 C91.97929687 93.87671875 91.97929687 93.87671875 91.703125 95.28125 C91.00694783 97.97313506 90.09198662 100.44586179 89 103 C88.67 103 88.34 103 88 103 C88.165 101.9275 88.33 100.855 88.5 99.75 C89.21160726 94.17741358 89.08411046 88.60736426 89 83 C87.515 82.505 87.515 82.505 86 82 C85.5875 81.21625 85.175 80.4325 84.75 79.625 C82.33318019 75.99977029 80.0516358 75.45247321 76 74 C76 73.34 76 72.68 76 72 C75.34 72 74.68 72 74 72 C74 71.34 74 70.68 74 70 C73.13375 70.0825 72.2675 70.165 71.375 70.25 C67.14231607 69.93646786 65.44934377 68.4348309 62 66 C59.70717531 64.940258 57.39385024 63.9702368 55.05078125 63.02734375 C52.88707237 61.94342863 51.66293612 60.73165249 50 59 C48.01679982 57.96708324 46.01652194 56.9662501 44 56 C43.01 55.34 42.02 54.68 41 54 C41 53.34 41 52.68 41 52 C40.41992188 51.90203125 39.83984375 51.8040625 39.2421875 51.703125 C34.00678531 50.70096881 30.24138129 49.41379469 26 46 C25.34 45.01 24.68 44.02 24 43 C22.515 42.505 22.515 42.505 21 42 C21 41.34 21 40.68 21 40 C20.030625 39.731875 19.06125 39.46375 18.0625 39.1875 C17.051875 38.795625 16.04125 38.40375 15 38 C14.505 36.515 14.505 36.515 14 35 C13.360625 34.62875 12.72125 34.2575 12.0625 33.875 C9.23197859 31.30179872 9.11523499 28.89658865 8.421875 25.2265625 C7.9221114 22.58892125 7.32065155 20.34782498 6 18 C3.95894361 17.11306697 3.95894361 17.11306697 2 17 C2.66 15.02 3.32 13.04 4 11 C3.01 10.67 2.02 10.34 1 10 C0.67 6.7 0.34 3.4 0 0 Z " fill="#B13311" transform="translate(199,202)"/>
<path d="M0 0 C6.43915619 7.55744102 6.49849593 18.86992551 6.29296875 28.34375 C5.41159083 39.34334647 1.40169872 48.03850744 -4.375 57.25 C-4.74882812 57.87390625 -5.12265625 58.4978125 -5.5078125 59.140625 C-7.92202992 62.9769157 -9.68247041 64.66468157 -14 66 C-14.33 66.66 -14.66 67.32 -15 68 C-25.98765102 74.22878544 -33.8621645 73.20560584 -45.625 70.0625 C-49.2265625 69.03515625 -49.2265625 69.03515625 -52 68 C-52.33 67.34 -52.66 66.68 -53 66 C-47.99896413 66.54556755 -43.24212803 67.33615966 -38.37109375 68.59765625 C-31.05530163 69.83905096 -26.64857488 68.30951921 -20.375 64.8125 C-19.63765625 64.42513672 -18.9003125 64.03777344 -18.140625 63.63867188 C-9.55655134 58.9851194 -2.38227153 51.58975918 0.60400391 42.07568359 C3.65130824 29.91276131 3.33311469 19.51289588 0.65625 7.35546875 C0 4 0 4 0 0 Z " fill="#3D1105" transform="translate(309,270)"/>
<path d="M0 0 C6.59629574 5.5193495 6.59629574 5.5193495 8.49609375 7.78125 C13.92860082 14.21559604 21.1505648 15.79853025 29 18 C30.32310248 18.3782569 31.64602766 18.7571347 32.96875 19.13671875 C33.9690625 19.42160156 34.969375 19.70648438 36 20 C36 20.66 36 21.32 36 22 C30.25674136 21.47614326 25.49925146 20.33598284 20.1875 18.125 C19.53330078 17.86847656 18.87910156 17.61195313 18.20507812 17.34765625 C14.83064997 15.9758254 12.46892808 14.65237785 10 12 C5.31512483 10.84963962 5.31512483 10.84963962 0.75390625 11.953125 C-3.33679683 13.50817241 -7.39780615 13.45991124 -11.73632812 13.65429688 C-15.49274 13.78745385 -15.49274 13.78745385 -19 15 C-20.99960012 15.039992 -23.00047242 15.04346799 -25 15 C-25 14.34 -25 13.68 -25 13 C-25.99 13 -26.98 13 -28 13 C-28 12.34 -28 11.68 -28 11 C-28.99 10.67 -29.98 10.34 -31 10 C-30.67 8.68 -30.34 7.36 -30 6 C-29.4740625 6.7115625 -29.4740625 6.7115625 -28.9375 7.4375 C-25.25452035 10.40764488 -20.46663909 10.15186977 -15.921875 9.73046875 C-14.53003111 9.55910451 -13.13935173 9.37801745 -11.75 9.1875 C-10.69039062 9.0627832 -10.69039062 9.0627832 -9.609375 8.93554688 C-6.0654823 8.47578049 -4.02175131 8.01450088 -1 6 C-0.26656572 2.93443402 -0.26656572 2.93443402 0 0 Z " fill="#A52E0C" transform="translate(219,315)"/>
<path d="M0 0 C0.84820312 -0.02578125 1.69640625 -0.0515625 2.5703125 -0.078125 C5.36210162 0.31935006 6.01857208 1.22444127 7.875 3.25 C7.17415283 3.33040527 6.47330566 3.41081055 5.7512207 3.49365234 C2.56243349 3.8635886 -0.62499459 4.24418373 -3.8125 4.625 C-4.91529297 4.75132812 -6.01808594 4.87765625 -7.15429688 5.0078125 C-8.22099609 5.13671875 -9.28769531 5.265625 -10.38671875 5.3984375 C-11.36600342 5.51364746 -12.34528809 5.62885742 -13.35424805 5.74755859 C-18.45181128 6.67193829 -21.79763028 8.23420896 -25.125 12.25 C-26.29453416 14.67383077 -26.29453416 14.67383077 -27.125 17.25 C-27.49625 18.013125 -27.8675 18.77625 -28.25 19.5625 C-30.18140126 25.49466101 -29.79866253 33.90267495 -27 39.5 C-26.71125 40.0775 -26.4225 40.655 -26.125 41.25 C-26.455 42.24 -26.785 43.23 -27.125 44.25 C-30.125 38.625 -30.125 38.625 -30.125 35.25 C-30.785 35.25 -31.445 35.25 -32.125 35.25 C-34.0164757 26.47609593 -34.31135907 19.41663822 -30.0625 11.25 C-26.51778142 5.93927467 -23.45523638 3.94267331 -17.4375 2.5 C-15.00901559 2.03365161 -12.57127537 1.61159949 -10.125 1.25 C-9.25488281 1.064375 -8.38476562 0.87875 -7.48828125 0.6875 C-4.96050442 0.21954793 -2.56958964 0.04714843 0 0 Z " fill="#4C1606" transform="translate(260.125,174.75)"/>
<path d="M0 0 C0.66 0.33 1.32 0.66 2 1 C2.11590535 8.62336545 2.20472069 16.24663944 2.25906086 23.87068558 C2.28514349 27.41101476 2.32051425 30.95074069 2.37719727 34.49072266 C2.44197206 38.56158195 2.4661911 42.63180872 2.48828125 46.703125 C2.51408768 47.97303284 2.5398941 49.24294067 2.56648254 50.55133057 C2.5668602 51.73225281 2.56723785 52.91317505 2.56762695 54.12988281 C2.57873001 55.16912903 2.58983307 56.20837524 2.60127258 57.27911377 C1.78452202 60.97508365 0.11741152 61.99464928 -3 64 C-5.03637695 64.54589844 -5.03637695 64.54589844 -6.98828125 64.609375 C-7.69404297 64.64160156 -8.39980469 64.67382812 -9.12695312 64.70703125 C-9.84818359 64.72121094 -10.56941406 64.73539062 -11.3125 64.75 C-12.42334961 64.79447266 -12.42334961 64.79447266 -13.55664062 64.83984375 C-15.37052046 64.91005845 -17.18526278 64.95735048 -19 65 C-19.33 64.01 -19.66 63.02 -20 62 C-16.06190757 60.81492589 -12.506374 61.04692574 -8.4375 61.2578125 C-5.30962717 60.9269798 -4.21449611 60.23478114 -2 58 C-1.30610734 54.87216643 -1.30610734 54.87216643 -1.28515625 51.1875 C-1.25736588 50.49172852 -1.2295755 49.79595703 -1.20094299 49.07910156 C-1.11320468 46.71960503 -1.05568328 44.36045906 -1 42 C-0.94720266 40.25127925 -0.89363106 38.50258174 -0.83935547 36.75390625 C-0.67578982 31.16983361 -0.55477589 25.58520423 -0.4375 20 C-0.39417298 18.04947264 -0.35055495 16.09895172 -0.30664062 14.1484375 C-0.20108235 9.43235897 -0.09942664 4.71621162 0 0 Z " fill="#5F1A07" transform="translate(311,156)"/>
<path d="M0 0 C0.33 0 0.66 0 1 0 C0.53199289 4.05606165 0.12046792 7.46588679 -2 11 C-2.66 11 -3.32 11 -4 11 C-4.33 13.31 -4.66 15.62 -5 18 C-5.66 18 -6.32 18 -7 18 C-7.33 19.32 -7.66 20.64 -8 22 C-8.61875 22.103125 -9.2375 22.20625 -9.875 22.3125 C-12.36526484 22.87525373 -12.36526484 22.87525373 -14 26 C-17.82138295 27.85279173 -21.97499159 29.00701408 -26.01171875 30.31640625 C-28.03900574 30.96445733 -28.03900574 30.96445733 -30 32 C-32.97352288 32.23580516 -35.95563698 32.18517948 -38.9375 32.1875 C-40.1740332 32.20586914 -40.1740332 32.20586914 -41.43554688 32.22460938 C-42.22896484 32.22654297 -43.02238281 32.22847656 -43.83984375 32.23046875 C-44.56550537 32.23457764 -45.29116699 32.23868652 -46.03881836 32.24291992 C-48 32 -48 32 -51 30 C-53.31660165 29.63661151 -55.60240747 29.49737882 -57.94140625 29.34375 C-60 29 -60 29 -62 27 C-63.010625 26.67 -64.02125 26.34 -65.0625 26 C-68 25 -68 25 -69 23 C-65.37 23.66 -61.74 24.32 -58 25 C-57.67 24.34 -57.34 23.68 -57 23 C-56.58717773 23.47018555 -56.17435547 23.94037109 -55.74902344 24.42480469 C-52.7643565 27.11283806 -49.09626123 27.43375164 -45.25 28.25 C-44.46367187 28.435625 -43.67734375 28.62125 -42.8671875 28.8125 C-36.66063684 30.17340479 -31.10149713 30.32145216 -25.25 27.4375 C-22 26 -22 26 -19 26 C-18.505 24.515 -18.505 24.515 -18 23 C-16.2578125 21.9375 -16.2578125 21.9375 -14.125 21 C-8.94487233 18.70621653 -6.95638321 16.3374652 -4.828125 11.05078125 C-3.87707188 8.69557894 -2.84947161 6.38108088 -1.8125 4.0625 C-1.29623047 2.90427734 -1.29623047 2.90427734 -0.76953125 1.72265625 C-0.51558594 1.15417969 -0.26164062 0.58570313 0 0 Z " fill="#BF3610" transform="translate(313,312)"/>
<path d="M0 0 C4.44445939 4.18073929 6.17924177 9.28868428 8.2734375 14.8984375 C9.1432389 17.25353223 9.1432389 17.25353223 11.23828125 19.10546875 C12.14073965 22.25859262 12.91588973 25.41249413 13.65039062 28.60742188 C14.56198264 32.31553125 15.31163767 34.62539749 18.23828125 37.10546875 C18.56828125 38.09546875 18.89828125 39.08546875 19.23828125 40.10546875 C21.80234797 40.01809162 24.36310341 39.91117756 26.92578125 39.79296875 C27.64701172 39.77041016 28.36824219 39.74785156 29.11132812 39.72460938 C33.60926947 39.49868538 36.4994935 38.85609563 40.23828125 36.10546875 C39.61328125 37.98046875 39.61328125 37.98046875 38.23828125 40.10546875 C33.68546424 42.05667604 29.78181505 42.32327127 24.86328125 42.23046875 C23.61804688 42.21242187 22.3728125 42.194375 21.08984375 42.17578125 C20.14882813 42.15257812 19.2078125 42.129375 18.23828125 42.10546875 C17.57828125 40.78546875 16.91828125 39.46546875 16.23828125 38.10546875 C15.57828125 38.10546875 14.91828125 38.10546875 14.23828125 38.10546875 C11.80882965 34.46129135 12.0764855 32.39305603 12.23828125 28.10546875 C11.57828125 28.10546875 10.91828125 28.10546875 10.23828125 28.10546875 C10.1403125 27.49058594 10.04234375 26.87570313 9.94140625 26.2421875 C9.24941977 21.19512855 9.24941977 21.19512855 6.11328125 17.54296875 C4.23828125 16.10546875 4.23828125 16.10546875 3.98046875 14.16015625 C3.98750724 12.14011054 4.10610231 10.12119764 4.23828125 8.10546875 C3.57828125 8.10546875 2.91828125 8.10546875 2.23828125 8.10546875 C2.23828125 7.44546875 2.23828125 6.78546875 2.23828125 6.10546875 C0.25828125 5.44546875 -1.72171875 4.78546875 -3.76171875 4.10546875 C-3.43171875 3.44546875 -3.10171875 2.78546875 -2.76171875 2.10546875 C-10.84217981 -1.93476178 -25.11286407 1.74878566 -33.76171875 3.10546875 C-33.43171875 2.44546875 -33.10171875 1.78546875 -32.76171875 1.10546875 C-30.16248832 0.44659406 -27.64972142 -0.07788366 -25.01171875 -0.51953125 C-24.24762695 -0.64851807 -23.48353516 -0.77750488 -22.69628906 -0.91040039 C-5.33630966 -3.66069333 -5.33630966 -3.66069333 0 0 Z " fill="#B03B18" transform="translate(272.76171875,179.89453125)"/>
<path d="M0 0 C1.32 0 2.64 0 4 0 C5.76462683 3.08809695 6 4.23312136 6 8 C7.65 8.33 9.3 8.66 11 9 C11 9.845625 11 10.69125 11 11.5625 C12.2857605 15.98230172 14.45207129 17.50660953 17.9921875 20.2890625 C20.5849304 22.49844264 22.73447384 24.58386049 23.375 28 C24.32471227 31.03907925 26.49117058 32.13296415 29 34 C29.556875 34.639375 30.11375 35.27875 30.6875 35.9375 C37.37503856 41.90206142 43.89278847 43.56517935 52.7265625 43.17578125 C53.47679687 43.11777344 54.22703125 43.05976563 55 43 C50.40064159 46.06623894 46.38365771 45.82376449 41 45 C30.97333775 41.57330554 24.96313593 36.67879556 19 28 C18.03953451 26.73555109 17.07151637 25.47681791 16.09765625 24.22265625 C10.0849714 16.45182717 4.66308643 8.66940011 0 0 Z " fill="#A22F0E" transform="translate(215,268)"/>
<path d="M0 0 C2.22990727 0.06034932 4.4590536 0.1492275 6.6875 0.25 C7.92886719 0.29640625 9.17023438 0.3428125 10.44921875 0.390625 C14.46295957 1.07945181 16.04156389 2.29157258 19 5 C23.81085022 7.13815565 27.83269246 7.17818302 33 7 C33.495 7.99 33.495 7.99 34 9 C35.89533342 9.46523063 35.89533342 9.46523063 38.0625 9.625 C39.361875 9.74875 40.66125 9.8725 42 10 C42 10.66 42 11.32 42 12 C47.28 12 52.56 12 58 12 C58.495 13.485 58.495 13.485 59 15 C38.20990609 14.43351243 19.12014734 9.05295617 0 1 C0 0.67 0 0.34 0 0 Z " fill="#D1603D" transform="translate(182,395)"/>
<path d="M0 0 C0.66 0.33 1.32 0.66 2 1 C4.00800456 0.71887936 6.01014051 0.38932033 8 0 C5.94766315 2.2477975 4.99332739 3.0022242 2 4 C1.67 4.66 1.34 5.32 1 6 C-9.98765102 12.22878544 -17.8621645 11.20560584 -29.625 8.0625 C-33.2265625 7.03515625 -33.2265625 7.03515625 -36 6 C-36.33 5.34 -36.66 4.68 -37 4 C-31.99896413 4.54556755 -27.24212803 5.33615966 -22.37109375 6.59765625 C-15.80660267 7.71156495 -11.90066475 6.83613467 -6.1875 3.4375 C-4.155705 2.2380629 -2.0990514 1.07741519 0 0 Z " fill="#5D1D09" transform="translate(293,332)"/>
<path d="M0 0 C0.66 0.33 1.32 0.66 2 1 C0.7315625 2.423125 0.7315625 2.423125 -0.5625 3.875 C-5.24147174 11.19001215 -2.92666696 21.90333174 -1.4453125 30.05078125 C-1.29835937 30.69402344 -1.15140625 31.33726562 -1 32 C-0.34 32 0.32 32 1 32 C1.33 32.66 1.66 33.32 2 34 C4.02463255 34.65213292 4.02463255 34.65213292 6 35 C6 35.66 6 36.32 6 37 C6.969375 37.268125 7.93875 37.53625 8.9375 37.8125 C9.948125 38.204375 10.95875 38.59625 12 39 C12.33 39.99 12.66 40.98 13 42 C14.051875 42.0825 15.10375 42.165 16.1875 42.25 C20.27047209 43.05320762 22.0122727 44.19334709 25 47 C18.55777206 46.49140306 11.60011884 43.60011884 7 39 C5.71592563 38.6192247 4.42289924 38.26809698 3.125 37.9375 C0.46961952 36.98811714 -0.73582535 36.37343669 -2.37890625 34.05078125 C-5.78623501 26.64518479 -7.64852897 17.32601667 -5.1875 9.375 C-4.795625 8.59125 -4.40375 7.8075 -4 7 C-3.2265625 5.39125 -3.2265625 5.39125 -2.4375 3.75 C-1 1 -1 1 0 0 Z " fill="#B1320F" transform="translate(236,185)"/>
<path d="M0 0 C0.33 0 0.66 0 1 0 C1.37125 1.2375 1.7425 2.475 2.125 3.75 C3.79589361 8.78643761 6.09504764 13.38273743 8.54296875 18.08203125 C9.79746897 20.59439496 10.78190509 23.05850292 11.75 25.6875 C13.87027093 30.69243139 17.69050167 33.60920266 21.85546875 36.95703125 C24.05395127 39.0513962 24.66059166 40.03849582 25 43 C23.68 42.67 22.36 42.34 21 42 C21 41.34 21 40.68 21 40 C20.030625 39.731875 19.06125 39.46375 18.0625 39.1875 C17.051875 38.795625 16.04125 38.40375 15 38 C14.505 36.515 14.505 36.515 14 35 C13.360625 34.62875 12.72125 34.2575 12.0625 33.875 C9.23197859 31.30179872 9.11523499 28.89658865 8.421875 25.2265625 C7.9221114 22.58892125 7.32065155 20.34782498 6 18 C3.95894361 17.11306697 3.95894361 17.11306697 2 17 C2.66 15.02 3.32 13.04 4 11 C3.01 10.67 2.02 10.34 1 10 C0.67 6.7 0.34 3.4 0 0 Z " fill="#BD3E19" transform="translate(199,202)"/>
<path d="M0 0 C5.0322774 5.0322774 4.17973728 14.61056516 4.1875 21.375 C4.18830566 22.05256348 4.18911133 22.73012695 4.18994141 23.42822266 C4.1493444 27.06842122 3.85434811 30.45958143 3 34 C2.01 34 1.02 34 0 34 C-0.0825 34.845625 -0.165 35.69125 -0.25 36.5625 C-1.14228645 40.65214621 -2.81627744 43.48634114 -5 47 C-5.495 47.928125 -5.99 48.85625 -6.5 49.8125 C-8.13233934 52.19299487 -9.3330779 52.98840886 -12 54 C-11.443125 53.030625 -10.88625 52.06125 -10.3125 51.0625 C-9.94898438 50.423125 -9.58546875 49.78375 -9.2109375 49.125 C-8.38956814 47.68362925 -7.561198 46.2462297 -6.7265625 44.8125 C1.5154635 30.42641825 2.29648603 16.36246293 0 0 Z " fill="#AB300D" transform="translate(313,278)"/>
<path d="M0 0 C3 1 3 1 4.66699219 3.07226562 C6.32967055 6.72406763 6.39559481 9.91291555 6.328125 13.84375 C6.32661438 14.60218704 6.32510376 15.36062408 6.32354736 16.14204407 C6.31422263 18.59505948 6.28276026 21.04719516 6.25 23.5 C6.23810569 25.17797286 6.22703976 26.85595179 6.21679688 28.53393555 C6.1236175 40.37095209 5.78471923 52.187173 5 64 C4.67 64 4.34 64 4 64 C3.99413376 63.26750534 3.98826752 62.53501068 3.98222351 61.78031921 C3.9243336 54.87918012 3.85227834 47.97831888 3.76428509 41.07750225 C3.71954618 37.52963721 3.68029829 33.98188792 3.65356445 30.43383789 C3.62259374 26.35533459 3.56780395 22.27745455 3.51171875 18.19921875 C3.50213387 16.28661507 3.50213387 16.28661507 3.49235535 14.33537292 C3.47256119 13.15437515 3.45276703 11.97337738 3.43237305 10.7565918 C3.42126999 9.71512497 3.41016693 8.67365814 3.39872742 7.60063171 C2.9428569 4.62729385 2.22106877 3.90778655 0 2 C0 1.34 0 0.68 0 0 Z " fill="#A62F0D" transform="translate(309,152)"/>
<path d="M0 0 C-0.875 4.75 -0.875 4.75 -2 7 C-1.34 7 -0.68 7 0 7 C0 7.66 0 8.32 0 9 C-4.01221042 10.0402027 -7.83932062 11 -12 11 C-14.33564933 11.31669821 -16.6693782 11.64820803 -19 12 C-14.80892044 7.06051338 -6.66287101 0 0 0 Z " fill="#DD3E0E" transform="translate(176,109)"/>
<path d="M0 0 C-2.8243443 2.8243443 -6.18962527 3.43434504 -9.9375 4.5 C-10.7102124 4.72139648 -11.4829248 4.94279297 -12.27905273 5.17089844 C-23.51057706 8.32796887 -34.38995309 9.44644695 -46 10 C-43.47524299 7.47524299 -42.43508563 7.7248352 -38.9375 7.5625 C-35.18781054 7.29431675 -32.01979697 6.81753702 -28.5 5.5 C-23.43259548 3.61466801 -18.36577444 3.29085506 -13 3 C-13 2.34 -13 1.68 -13 1 C-8.61414671 0.29826347 -4.44209357 -0.10834375 0 0 Z " fill="#CE603E" transform="translate(305,400)"/>
<path d="M0 0 C0.47308594 0.31453125 0.94617188 0.6290625 1.43359375 0.953125 C4.9684754 3.24080669 8.41973137 5.25886862 12.3125 6.875 C16.98514136 8.85343335 21.03635741 11.54006515 25.26953125 14.31640625 C29.01693529 16.62703735 32.91554316 18.37630234 37 20 C37 20.66 37 21.32 37 22 C31.59449069 21.57603849 29.04913219 20.53001268 25 17 C23.01612292 15.96838392 21.01723344 14.96476382 19 14 C18.01 13.34 17.02 12.68 16 12 C16 11.34 16 10.68 16 10 C15.41992188 9.90203125 14.83984375 9.8040625 14.2421875 9.703125 C9.04204027 8.70771728 5.13366141 7.5136122 1 4 C0.34375 1.8671875 0.34375 1.8671875 0 0 Z " fill="#822A12" transform="translate(224,244)"/>
<path d="M0 0 C0.66 0 1.32 0 2 0 C1.86795166 0.8242749 1.73590332 1.6485498 1.59985352 2.49780273 C0.20016489 11.67681343 -0.55276743 20.79958193 -1.0625 30.0625 C-1.17887018 32.12837312 -1.2970218 34.1940959 -1.41929626 36.2596283 C-1.52845582 38.10913013 -1.63173013 39.95897663 -1.73461914 41.80883789 C-2.36281709 49.36281709 -2.36281709 49.36281709 -5 52 C-4.8612922 48.06221489 -4.71281508 44.12485777 -4.5625 40.1875 C-4.52318359 39.06794922 -4.48386719 37.94839844 -4.44335938 36.79492188 C-4.40146484 35.72177734 -4.35957031 34.64863281 -4.31640625 33.54296875 C-4.27974854 32.55321045 -4.24309082 31.56345215 -4.20532227 30.54370117 C-4 28 -4 28 -3 25 C-2.87629673 23.50546967 -2.79928743 22.00676679 -2.75390625 20.5078125 C-2.72103516 19.63769531 -2.68816406 18.76757812 -2.65429688 17.87109375 C-2.59336406 16.04829516 -2.53604036 14.22537216 -2.48242188 12.40234375 C-2.30525332 7.87618863 -2.12392673 4.11027116 0 0 Z " fill="#BF4624" transform="translate(191,270)"/>
<path d="M0 0 C1.32 1.32 2.64 2.64 4 4 C3.360625 4.78375 2.72125 5.5675 2.0625 6.375 C0.01857687 8.79539281 0.01857687 8.79539281 -1 11 C-4.99029697 12.33009899 -8.82029977 12.44105541 -13 12.6875 C-13.81984375 12.74744141 -14.6396875 12.80738281 -15.484375 12.86914062 C-16.27328125 12.91619141 -17.0621875 12.96324219 -17.875 13.01171875 C-18.59429687 13.05772217 -19.31359375 13.10372559 -20.0546875 13.15112305 C-22 13 -22 13 -25 11 C-24.37955811 10.91959473 -23.75911621 10.83918945 -23.11987305 10.75634766 C-20.30795146 10.38732078 -17.49778199 10.00630375 -14.6875 9.625 C-13.71103516 9.49867188 -12.73457031 9.37234375 -11.72851562 9.2421875 C-10.79072266 9.11328125 -9.85292969 8.984375 -8.88671875 8.8515625 C-8.02264404 8.73635254 -7.15856934 8.62114258 -6.26831055 8.50244141 C-3.73547804 8.08483053 -3.73547804 8.08483053 -1 6 C-0.26656572 2.93443402 -0.26656572 2.93443402 0 0 Z " fill="#561604" transform="translate(219,315)"/>
<path d="M0 0 C7.19563618 8.44529848 6.62343517 21.53348258 6 32 C5.69956065 34.00520505 5.37714971 36.0077979 5 38 C4.67 38 4.34 38 4 38 C3.44462282 33.24954163 2.92406677 28.5983641 3.125 23.8125 C3.2257292 18.19181067 1.85766647 12.8119019 0.65625 7.35546875 C0 4 0 4 0 0 Z " fill="#621C09" transform="translate(309,270)"/>
<path d="M0 0 C0.33 0.99 0.66 1.98 1 3 C0.34 3.66 -0.32 4.32 -1 5 C-3.22152798 10.77597276 -2.13738657 18.08558984 -1 24 C-0.62875 24.7425 -0.2575 25.485 0.125 26.25 C0.41375 26.8275 0.7025 27.405 1 28 C0.67 28.99 0.34 29.98 0 31 C-3 25.375 -3 25.375 -3 22 C-3.66 22 -4.32 22 -5 22 C-6.26382374 13.57958402 -6.2445817 8.686618 -1.3125 1.5625 C-0.879375 1.046875 -0.44625 0.53125 0 0 Z " fill="#6B1E09" transform="translate(233,188)"/>
<path d="M0 0 C-6.60093751 4.40062501 -15.83753117 3.12207661 -23.5 3.0625 C-24.60859375 3.05798828 -25.7171875 3.05347656 -26.859375 3.04882812 C-29.57297399 3.03713158 -32.28645761 3.02074086 -35 3 C-35 2.67 -35 2.34 -35 2 C-23.26452843 0.5713339 -11.82803234 -0.29366149 0 0 Z " fill="#C64320" transform="translate(258,90)"/>
<path d="M0 0 C1.9375 0.8125 1.9375 0.8125 4 2 C4.33 2.99 4.66 3.98 5 5 C5.66 5 6.32 5 7 5 C7 5.66 7 6.32 7 7 C7.66 7.33 8.32 7.66 9 8 C11.74930272 11.01405039 12.42194496 13.21356336 12.6875 17.25 C12.78611328 18.58804687 12.78611328 18.58804687 12.88671875 19.953125 C12.92410156 20.62859375 12.96148437 21.3040625 13 22 C9.71669856 19.07651242 9.04133067 16.24542505 8 12 C7.34 12 6.68 12 6 12 C4 8 2 4 0 0 Z " fill="#B23310" transform="translate(302,258)"/>
<path d="M0 0 C-0.33 0.66 -0.66 1.32 -1 2 C-1.56807373 1.98428955 -2.13614746 1.9685791 -2.72143555 1.95239258 C-22.58389631 1.30444937 -22.58389631 1.30444937 -41 8 C-41 7.01 -41 6.02 -41 5 C-40.01 5 -39.02 5 -38 5 C-37.67 4.01 -37.34 3.02 -37 2 C-24.6755128 -0.39227481 -12.50209796 -0.21003783 0 0 Z " fill="#BE4C2B" transform="translate(258,148)"/>
<path d="M0 0 C0.66 0.99 1.32 1.98 2 3 C0.87464844 2.97679687 -0.25070312 2.95359375 -1.41015625 2.9296875 C-11.48179804 2.78860957 -21.05502128 3.35717166 -31 5 C-30.67 4.34 -30.34 3.68 -30 3 C-27.40083572 2.34114208 -24.88786493 1.81704967 -22.25 1.375 C-21.4880835 1.24528809 -20.72616699 1.11557617 -19.94116211 0.98193359 C-13.41294227 -0.0593608 -6.56973705 -1.07218109 0 0 Z " fill="#AA310E" transform="translate(270,178)"/>
<path d="M0 0 C0.845625 0.886875 1.69125 1.77375 2.5625 2.6875 C9.68969765 8.85274459 20.1246243 10.48378524 29 13 C29 13.66 29 14.32 29 15 C23.38100956 14.47049425 18.59572933 13.43988822 13.375 11.3125 C12.72200928 11.04920898 12.06901855 10.78591797 11.39624023 10.51464844 C6.43092667 8.40674999 3.22244537 6.29659383 0 2 C0 1.34 0 0.68 0 0 Z " fill="#6C210D" transform="translate(226,322)"/>
<path d="M0 0 C0.66 0.66 1.32 1.32 2 2 C4.06874034 2.6425235 4.06874034 2.6425235 6 3 C6 3.66 6 4.32 6 5 C7.4540625 5.4021875 7.4540625 5.4021875 8.9375 5.8125 C9.948125 6.204375 10.95875 6.59625 12 7 C12.33 7.99 12.66 8.98 13 10 C14.5778125 10.12375 14.5778125 10.12375 16.1875 10.25 C20.27047209 11.05320762 22.0122727 12.19334709 25 15 C18.55777206 14.49140306 11.60011884 11.60011884 7 7 C5.01643517 6.28591666 3.01684563 5.61382258 1 5 C0.67 3.35 0.34 1.7 0 0 Z " fill="#AF3917" transform="translate(236,217)"/>
<path d="M0 0 C0.66 0.33 1.32 0.66 2 1 C4.00800456 0.71887936 6.01014051 0.38932033 8 0 C5.94766315 2.2477975 4.99332739 3.0022242 2 4 C1.67 4.66 1.34 5.32 1 6 C-6.79393683 10.41830198 -13.2335796 11.74293004 -22 10 C-22 9.67 -22 9.34 -22 9 C-21.23816406 8.97421875 -20.47632813 8.9484375 -19.69140625 8.921875 C-13.11582703 8.56066965 -6.44944069 8.07737249 -1 4 C-0.21171418 1.93999562 -0.21171418 1.93999562 0 0 Z " fill="#7D2309" transform="translate(293,332)"/>
<path d="M0 0 C9.80862624 2.51870778 17.94161883 5.59643902 24 14 C20.5118844 12.90996387 18.05732108 11.32520079 15.25 9.0625 C11.64234483 6.25044939 8.25831761 4.8007359 3.8828125 3.54296875 C2 3 2 3 0 2 C0 1.34 0 0.68 0 0 Z " fill="#75220C" transform="translate(262,265)"/>
<path d="M0 0 C4.63720719 3.27530896 8.68542782 6.30435607 12 11 C11.67 11.66 11.34 12.32 11 13 C10.01 12.67 9.02 12.34 8 12 C8 11.34 8 10.68 8 10 C7.030625 9.731875 6.06125 9.46375 5.0625 9.1875 C4.051875 8.795625 3.04125 8.40375 2 8 C1.67 7.01 1.34 6.02 1 5 C0.34 4.34 -0.32 3.68 -1 3 C-0.67 2.01 -0.34 1.02 0 0 Z " fill="#BD3412" transform="translate(212,232)"/>
<path d="M0 0 C1.32 0 2.64 0 4 0 C5.76462683 3.08809695 6 4.23312136 6 8 C7.65 8.33 9.3 8.66 11 9 C11.66 11.97 12.32 14.94 13 18 C7.41684914 12.9094801 3.25850725 6.81043458 0 0 Z " fill="#8F2C12" transform="translate(215,268)"/>
<path d="M0 0 C2.31 0 4.62 0 7 0 C6.21625 0.5775 5.4325 1.155 4.625 1.75 C2.14015252 3.87986927 1.29734861 5.11430871 0 8 C-1.85625 7.3503125 -1.85625 7.3503125 -3.75 6.6875 C-9.41697218 4.78947104 -15.19021215 3.38609152 -21 2 C-17.81579155 0.93859718 -16.91540891 1.04107451 -13.76953125 1.77734375 C-12.96708984 1.96103516 -12.16464844 2.14472656 -11.33789062 2.33398438 C-10.50451172 2.53314453 -9.67113281 2.73230469 -8.8125 2.9375 C-7.96751953 3.13279297 -7.12253906 3.32808594 -6.25195312 3.52929688 C-4.166307 4.01241264 -2.08292386 4.50527904 0 5 C0 3.35 0 1.7 0 0 Z " fill="#AD472B" transform="translate(281,148)"/>
<path d="M0 0 C12.87 0.495 12.87 0.495 26 1 C26.33 1.99 26.66 2.98 27 4 C17.85719039 3.56408185 8.97145478 2.9577539 0 1 C0 0.67 0 0.34 0 0 Z " fill="#CF6542" transform="translate(214,406)"/>
<path d="M0 0 C0 3 0 3 -1 5 C-1.66 5 -2.32 5 -3 5 C-3.33 5.99 -3.66 6.98 -4 8 C-4.99 8 -5.98 8 -7 8 C-7.04125 8.598125 -7.0825 9.19625 -7.125 9.8125 C-8 12 -8 12 -10.9375 13.8125 C-11.948125 14.204375 -12.95875 14.59625 -14 15 C-14.66 14.67 -15.32 14.34 -16 14 C-11.05590198 8.7697484 -5.76575494 4.30143623 0 0 Z " fill="#CA4422" transform="translate(155,121)"/>
<path d="M0 0 C3.40253272 3.96962151 6.17076825 7.29875675 5.828125 12.71875 C5.63734375 13.6365625 5.4465625 14.554375 5.25 15.5 C5.06953125 16.4178125 4.8890625 17.335625 4.703125 18.28125 C4.00694783 20.97313506 3.09198662 23.44586179 2 26 C1.67 26 1.34 26 1 26 C1.165 24.88625 1.33 23.7725 1.5 22.625 C2.32814757 15.86779595 3.04027157 9.27056011 0 3 C0 2.01 0 1.02 0 0 Z " fill="#B84525" transform="translate(286,279)"/>
<path d="M0 0 C0.82683893 2.36849346 1.10792077 3.64776779 0.36328125 6.078125 C0.01652344 6.79484375 -0.33023437 7.5115625 -0.6875 8.25 C-1.06132812 9.03117187 -1.43515625 9.81234375 -1.8203125 10.6171875 C-2.20960938 11.40351563 -2.59890625 12.18984375 -3 13 C-3.52207031 14.11761719 -3.52207031 14.11761719 -4.0546875 15.2578125 C-5.71020911 18.73569123 -7.14104427 21.35971793 -10 24 C-10.66 23.67 -11.32 23.34 -12 23 C-11.278125 22.05125 -10.55625 21.1025 -9.8125 20.125 C-5.44361546 14.00607932 -2.09211704 7.22731341 0 0 Z " fill="#812108" transform="translate(313,308)"/>
<path d="M0 0 C-0.99 0.66 -1.98 1.32 -3 2 C-3.515625 2.53625 -4.03125 3.0725 -4.5625 3.625 C-6 5 -6 5 -8 5 C-8.0825 5.70125 -8.165 6.4025 -8.25 7.125 C-9.17474403 10.6698521 -10.90391599 13.01466823 -13 16 C-13.69429379 17.3191582 -14.37530495 18.64649406 -15 20 C-15.49875008 14.69876926 -13.96726728 11.5000751 -11.125 7.1875 C-10.76019531 6.60291016 -10.39539063 6.01832031 -10.01953125 5.41601562 C-6.97377097 0.63694086 -5.58050018 -0.14685527 0 0 Z " fill="#2E0C02" transform="translate(242,179)"/>
<path d="M0 0 C2.89763097 1.14149099 5.76454618 2.32954577 8.625 3.5625 C11.90487299 5.0131887 11.90487299 5.0131887 15 6 C15 6.66 15 7.32 15 8 C15.99 8.33 16.98 8.66 18 9 C17.67 9.66 17.34 10.32 17 11 C16.360625 10.54625 15.72125 10.0925 15.0625 9.625 C11.65251547 7.81562045 8.67145101 7.22592599 4.890625 6.625 C4.26671875 6.41875 3.6428125 6.2125 3 6 C2.67 5.01 2.34 4.02 2 3 C1.34 2.67 0.68 2.34 0 2 C0 1.34 0 0.68 0 0 Z " fill="#C4360D" transform="translate(225,248)"/>
<path d="M0 0 C1.43931117 0.45261358 2.87638999 0.91232979 4.3125 1.375 C5.11300781 1.63023437 5.91351563 1.88546875 6.73828125 2.1484375 C9 3 9 3 12 5 C14.97449608 5.24219315 14.97449608 5.24219315 18.1875 5.125 C19.27417969 5.10695313 20.36085938 5.08890625 21.48046875 5.0703125 C22.31191406 5.04710937 23.14335937 5.02390625 24 5 C19.50432756 7.99711496 15.27107115 7.58178046 10 7 C6.77009644 6.04699067 3.77459668 4.92931258 1 3 C0.67 2.01 0.34 1.02 0 0 Z " fill="#B14220" transform="translate(246,306)"/>
<path d="M0 0 C0.99 0.33 1.98 0.66 3 1 C4.39439664 1.06665376 5.79169875 1.08538199 7.1875 1.0625 C8.445625 1.041875 9.70375 1.02125 11 1 C11.33 1.66 11.66 2.32 12 3 C13.89533342 3.46523063 13.89533342 3.46523063 16.0625 3.625 C17.361875 3.74875 18.66125 3.8725 20 4 C19.67 4.66 19.34 5.32 19 6 C16.41536498 5.71749338 13.83268865 5.4243774 11.25 5.125 C10.15558594 5.00705078 10.15558594 5.00705078 9.0390625 4.88671875 C5.33222743 4.44863824 2.19547828 4.0013785 -1 2 C-0.67 1.34 -0.34 0.68 0 0 Z " fill="#CC4D29" transform="translate(204,401)"/>
<path d="M0 0 C-5.16815281 2.05722588 -9.8922296 2.41513319 -15.375 2.625 C-16.20644531 2.66367187 -17.03789062 2.70234375 -17.89453125 2.7421875 C-19.92935156 2.83574246 -21.96464416 2.91892713 -24 3 C-24 2.67 -24 2.34 -24 2 C-19.00077954 0.41140206 -14.45959979 -0.36686382 -9.1875 -0.6875 C-7.88167969 -0.77386719 -6.57585937 -0.86023438 -5.23046875 -0.94921875 C-2 -1 -2 -1 0 0 Z " fill="#CB3810" transform="translate(219,328)"/>
<path d="M0 0 C0.33 0.99 0.66 1.98 1 3 C-5.24161903 6.58125682 -9.75420281 8.67090715 -17 8 C-17 7.67 -17 7.34 -17 7 C-16.443125 6.82984375 -15.88625 6.6596875 -15.3125 6.484375 C-9.90409391 4.76684063 -5.01937104 2.64657745 0 0 Z " fill="#390E01" transform="translate(292,333)"/>
<path d="M0 0 C2.97 0.33 5.94 0.66 9 1 C9.33 1.99 9.66 2.98 10 4 C10.65129797 5.34090759 11.31513275 6.67592331 12 8 C7.44328408 6.48109469 3.68276708 4.04597738 0 1 C0 0.67 0 0.34 0 0 Z " fill="#CF401A" transform="translate(157,379)"/>
<path d="M0 0 C0.66 0.33 1.32 0.66 2 1 C0.6875 2.5 0.6875 2.5 -1 4 C-1.99 4 -2.98 4 -4 4 C-3.67 4.99 -3.34 5.98 -3 7 C-6.3171411 8.4216319 -9.44219804 9.39009109 -13 10 C-9.23156953 5.87827917 -5.11095695 2.36931779 0 0 Z " fill="#CB441D" transform="translate(170,111)"/>
<path d="M0 0 C0.66 0 1.32 0 2 0 C2 0.66 2 1.32 2 2 C2.66 2.33 3.32 2.66 4 3 C2.3767313 3.6708712 0.75132422 4.33657029 -0.875 5 C-2.23238281 5.556875 -2.23238281 5.556875 -3.6171875 6.125 C-6 7 -6 7 -8 7 C-8 6.01 -8 5.02 -8 4 C-7.34 3.67 -6.68 3.34 -6 3 C-6 2.34 -6 1.68 -6 1 C-4.35 1.33 -2.7 1.66 -1 2 C-0.67 1.34 -0.34 0.68 0 0 Z " fill="#D66240" transform="translate(314,393)"/>
<path d="M0 0 C0.78375 0.5775 1.5675 1.155 2.375 1.75 C6.58398034 4.58296753 11.26728562 6.24160019 16 8 C16 8.33 16 8.66 16 9 C10.81905476 9.64761816 7.97561093 8.14747663 3.734375 5.484375 C1.79552401 3.82499803 0.97816123 2.33560948 0 0 Z " fill="#B0320E" transform="translate(228,326)"/>
<path d="M0 0 C5.03203394 0.47175318 9.19291033 2.76611259 13 6 C14.5 9.3125 14.5 9.3125 15 12 C12 11 12 11 10.75 8.625 C8.33318019 4.99977029 6.0516358 4.45247321 2 3 C2 2.34 2 1.68 2 1 C1.34 0.67 0.68 0.34 0 0 Z " fill="#C83811" transform="translate(273,273)"/>
<path d="M0 0 C3.23495393 0.96174306 4.77726248 1.72696691 6.9375 4.375 C7.288125 5.24125 7.63875 6.1075 8 7 C7.06640625 9.1640625 7.06640625 9.1640625 6 11 C4.9944239 9.54550599 3.99569565 8.08627557 3 6.625 C2.443125 5.81289063 1.88625 5.00078125 1.3125 4.1640625 C0 2 0 2 0 0 Z " fill="#D1411D" transform="translate(111,328)"/>
<path d="M0 0 C0.33 0 0.66 0 1 0 C1 7.92 1 15.84 1 24 C0.01 23.34 -0.98 22.68 -2 22 C-1.84660156 21.35675781 -1.69320312 20.71351563 -1.53515625 20.05078125 C-0.84253326 16.10232463 -0.64199119 12.1868113 -0.4375 8.1875 C-0.39431641 7.39923828 -0.35113281 6.61097656 -0.30664062 5.79882812 C-0.20121679 3.86605785 -0.10016906 1.93304974 0 0 Z " fill="#FEEADA" transform="translate(189,298)"/>
<path d="M0 0 C0.99 0.33 1.98 0.66 3 1 C4.65659008 4.87131446 5.58137502 8.81375016 6 13 C4.1875 16.25 4.1875 16.25 2 18 C2.10699219 17.3709375 2.21398437 16.741875 2.32421875 16.09375 C3.21552414 9.73002118 2.69970827 5.83136986 0 0 Z " fill="#FDF0E7" transform="translate(288,281)"/>
<path d="M0 0 C0.33 0 0.66 0 1 0 C0.54775239 5.91492272 -0.1582605 11.35199888 -2 17 C-2.33 17 -2.66 17 -3 17 C-3.33 13.7 -3.66 10.4 -4 7 C-3.34 7 -2.68 7 -2 7 C-1.34 4.69 -0.68 2.38 0 0 Z " fill="#C6431C" transform="translate(406,277)"/>
<path d="M0 0 C6.45092862 2.72923903 10.47183874 7.16496407 14 13 C13.67 13.66 13.34 14.32 13 15 C11.20580474 13.06478939 9.41458671 11.1269646 7.625 9.1875 C6.86316406 8.36668945 6.86316406 8.36668945 6.0859375 7.52929688 C3.84783697 5.09977985 1.83620888 2.75431332 0 0 Z " fill="#862E18" transform="translate(292,250)"/>
<path d="M0 0 C3.39228531 4.27722931 4.12631248 7.26343886 4.0625 12.6875 C4.05347656 13.68136719 4.04445313 14.67523438 4.03515625 15.69921875 C4.02355469 16.45847656 4.01195312 17.21773438 4 18 C3.67 18 3.34 18 3 18 C2.49490792 15.75113762 1.99610821 13.50086131 1.5 11.25 C1.2215625 9.99703125 0.943125 8.7440625 0.65625 7.453125 C0 4 0 4 0 0 Z " fill="#571806" transform="translate(309,270)"/>
<path d="M0 0 C3.79303725 1.00193437 6.71536341 1.81024227 10 4 C10 4.66 10 5.32 10 6 C10.66 6.33 11.32 6.66 12 7 C8.0870104 6.45400145 4.49685546 5.89829296 1 4 C0.1875 1.875 0.1875 1.875 0 0 Z " fill="#C7370D" transform="translate(244,259)"/>
<path d="M0 0 C0 3.73361842 -0.66738033 6.50980564 -2 10 C-4.625 11.4375 -4.625 11.4375 -7 12 C-5.44298069 7.32894208 -2.91552627 3.91294315 0 0 Z " fill="#CA431D" transform="translate(120,157)"/>
<path d="M0 0 C0.54269531 0.34933594 1.08539063 0.69867188 1.64453125 1.05859375 C2.35996094 1.51363281 3.07539063 1.96867188 3.8125 2.4375 C4.87404297 3.11619141 4.87404297 3.11619141 5.95703125 3.80859375 C8.08134552 5.14086339 8.08134552 5.14086339 11 6 C11.33 6.99 11.66 7.98 12 9 C7.48184545 8.46845241 4.54714937 6.82159609 1 4 C0.328125 1.86328125 0.328125 1.86328125 0 0 Z " fill="#882E12" transform="translate(224,244)"/>
<path d="M0 0 C3.63 0.66 7.26 1.32 11 2 C11.33 1.34 11.66 0.68 12 0 C12.99 1.32 13.98 2.64 15 4 C12.87422093 3.9131724 10.74930419 3.8050049 8.625 3.6875 C7.44164062 3.62949219 6.25828125 3.57148438 5.0390625 3.51171875 C3.53472656 3.25841797 3.53472656 3.25841797 2 3 C1.34 2.01 0.68 1.02 0 0 Z " fill="#A93310" transform="translate(244,335)"/>
<path d="M0 0 C1.32 1.32 2.64 2.64 4 4 C2.35 5.98 0.7 7.96 -1 10 C-2.32 9.67 -3.64 9.34 -5 9 C-4.0409375 8.443125 -4.0409375 8.443125 -3.0625 7.875 C-0.36141928 5.41947207 -0.31592995 3.55421195 0 0 Z " fill="#411D15" transform="translate(219,315)"/>
<path d="M0 0 C1.32 0.33 2.64 0.66 4 1 C4 1.66 4 2.32 4 3 C4.66 3.33 5.32 3.66 6 4 C6.33 4.66 6.66 5.32 7 6 C6.34 6 5.68 6 5 6 C4.67 7.32 4.34 8.64 4 10 C3.32845067 8.71086513 2.66291141 7.41859796 2 6.125 C1.62875 5.40570313 1.2575 4.68640625 0.875 3.9453125 C0 2 0 2 0 0 Z " fill="#D23F16" transform="translate(104,314)"/>
<path d="M0 0 C5.68046944 0.94055703 9.72424312 1.86217076 14 6 C8.65155992 5.46515599 4.64203897 3.53309233 0 1 C0 0.67 0 0.34 0 0 Z " fill="#AC4020" transform="translate(247,226)"/>
<path d="M0 0 C-0.33 1.65 -0.66 3.3 -1 5 C-2.98 5.33 -4.96 5.66 -7 6 C-7.33 5.34 -7.66 4.68 -8 4 C-2.25 0 -2.25 0 0 0 Z " fill="#5A1F0C" transform="translate(311,214)"/>
<path d="M0 0 C-0.804375 0.45375 -1.60875 0.9075 -2.4375 1.375 C-5.08856572 2.74725665 -5.08856572 2.74725665 -6 5 C-6.66 5 -7.32 5 -8 5 C-8 4.34 -8 3.68 -8 3 C-9.32 3.33 -10.64 3.66 -12 4 C-8.66437635 0.13769893 -4.98576775 -1.84658065 0 0 Z " fill="#FEF4E9" transform="translate(230,152)"/>
<path d="M0 0 C0.66 0.33 1.32 0.66 2 1 C2 1.66 2 2.32 2 3 C2.66 3 3.32 3 4 3 C4 3.66 4 4.32 4 5 C5.32 5.33 6.64 5.66 8 6 C5.03 6 2.06 6 -1 6 C-1.33 4.68 -1.66 3.36 -2 2 C-1.34 1.34 -0.68 0.68 0 0 Z " fill="#CE431F" transform="translate(196,262)"/>
<path d="M0 0 C0.33 0.66 0.66 1.32 1 2 C1.99 1.67 2.98 1.34 4 1 C6.06145107 0.931009 8.12501401 0.91532273 10.1875 0.9375 C11.81751953 0.95103516 11.81751953 0.95103516 13.48046875 0.96484375 C14.31191406 0.97644531 15.14335937 0.98804688 16 1 C16 1.33 16 1.66 16 2 C10.39 2.66 4.78 3.32 -1 4 C-0.67 2.68 -0.34 1.36 0 0 Z " fill="#79240C" transform="translate(250,176)"/>
<path d="M0 0 C0.78375 0.04125 1.5675 0.0825 2.375 0.125 C1.42078192 1.27426266 0.46147955 2.41930541 -0.5 3.5625 C-1.03367187 4.20058594 -1.56734375 4.83867187 -2.1171875 5.49609375 C-3.625 7.125 -3.625 7.125 -5.625 8.125 C-4.59375 0.21875 -4.59375 0.21875 0 0 Z " fill="#CC431E" transform="translate(359.625,362.875)"/>
<path d="M0 0 C4.66154042 1.49835228 5.86610751 4.88463591 8 9 C5.6875 8.4375 5.6875 8.4375 3 7 C1.65223022 4.72037377 0.88635784 2.51912228 0 0 Z " fill="#9E3716" transform="translate(239,299)"/>
<path d="M0 0 C4.48599743 1.25190626 7.59347128 2.79385533 11 6 C11 6.66 11 7.32 11 8 C9 7 7 6 5 5 C5 4.34 5 3.68 5 3 C4.360625 2.87625 3.72125 2.7525 3.0625 2.625 C2.381875 2.41875 1.70125 2.2125 1 2 C0.67 1.34 0.34 0.68 0 0 Z " fill="#77240E" transform="translate(235,251)"/>
<path d="M0 0 C0 3 0 3 -1.53125 4.82421875 C-2.1809375 5.43910156 -2.830625 6.05398438 -3.5 6.6875 C-4.1496875 7.31011719 -4.799375 7.93273437 -5.46875 8.57421875 C-5.9740625 9.04472656 -6.479375 9.51523437 -7 10 C-7.33 9.01 -7.66 8.02 -8 7 C-7.34 7 -6.68 7 -6 7 C-6.33 6.01 -6.66 5.02 -7 4 C-5.824375 3.566875 -5.824375 3.566875 -4.625 3.125 C-1.90328368 2.15087746 -1.90328368 2.15087746 0 0 Z " fill="#C54321" transform="translate(371,352)"/>
<path d="M0 0 C0.33 0 0.66 0 1 0 C1.19335938 0.59167969 1.38671875 1.18335938 1.5859375 1.79296875 C2.94414719 5.9146645 4.32050585 9.9950524 6 14 C5.34 13.67 4.68 13.34 4 13 C4 12.34 4 11.68 4 11 C3.01 10.67 2.02 10.34 1 10 C0.67 6.7 0.34 3.4 0 0 Z " fill="#AA3F20" transform="translate(199,202)"/>
<path d="M0 0 C2.12438339 -0.08078641 4.2496323 -0.13909141 6.375 -0.1875 C7.55835938 -0.22230469 8.74171875 -0.25710937 9.9609375 -0.29296875 C11.46527344 -0.14794922 11.46527344 -0.14794922 13 0 C13.66 0.99 14.32 1.98 15 3 C13.7934375 2.7834375 13.7934375 2.7834375 12.5625 2.5625 C8.38640519 1.90311661 4.20401941 1.43908647 0 1 C0 0.67 0 0.34 0 0 Z " fill="#972D0F" transform="translate(257,178)"/>
<path d="M0 0 C0 3 0 3 -1 5 C-1.66 5 -2.32 5 -3 5 C-3.33 5.99 -3.66 6.98 -4 8 C-4.99 8 -5.98 8 -7 8 C-5.50902342 4.2047869 -3.24299151 2.38957269 0 0 Z " fill="#D24119" transform="translate(155,121)"/>
<path d="M0 0 C0.33 0.66 0.66 1.32 1 2 C-0.73397418 5.65047197 -2.19333016 7.55609075 -6 9 C-2.25 2.25 -2.25 2.25 0 0 Z " fill="#8D270B" transform="translate(307,323)"/>
<path d="M0 0 C0.99 0.33 1.98 0.66 3 1 C0.525 5.455 0.525 5.455 -2 10 C-3.19156292 5.23374833 -2.3415946 4.12120649 0 0 Z " fill="#C84219" transform="translate(390,321)"/>
<path d="M0 0 C1.32 0.66 2.64 1.32 4 2 C3.360625 2.103125 2.72125 2.20625 2.0625 2.3125 C1.381875 2.539375 0.70125 2.76625 0 3 C-0.33 3.99 -0.66 4.98 -1 6 C-1.99 5.67 -2.98 5.34 -4 5 C-2.68 3.35 -1.36 1.7 0 0 Z " fill="#79240A" transform="translate(222,319)"/>
<path d="M0 0 C3.53372712 1.96318174 6.24479785 4.04070881 9 7 C8.67 7.66 8.34 8.32 8 9 C6 7.625 6 7.625 4 6 C4 5.34 4 4.68 4 4 C3.01 4 2.02 4 1 4 C0.67 2.68 0.34 1.36 0 0 Z " fill="#892D14" transform="translate(214,234)"/>
<path d="M0 0 C2.75 -0.25 2.75 -0.25 6 0 C8.375 2 8.375 2 10 4 C9.01 4.495 9.01 4.495 8 5 C6.0546875 4.22265625 6.0546875 4.22265625 3.875 3.0625 C3.15054687 2.68222656 2.42609375 2.30195313 1.6796875 1.91015625 C1.12539063 1.60980469 0.57109375 1.30945313 0 1 C0 0.67 0 0.34 0 0 Z " fill="#B4391B" transform="translate(262,231)"/>
<path d="M0 0 C1.32 0 2.64 0 4 0 C4.66 1.32 5.32 2.64 6 4 C3 4 0 4 -3 4 C-1.75 2 -1.75 2 0 0 Z " fill="#BE360E" transform="translate(222,322)"/>
<path d="M0 0 C3.34998521 1.11666174 3.79340222 1.74694925 5.6875 4.5625 C6.12449219 5.20316406 6.56148437 5.84382813 7.01171875 6.50390625 C7.33785156 6.99761719 7.66398438 7.49132812 8 8 C7.67 8.66 7.34 9.32 7 10 C6.01524786 8.90081184 5.03739527 7.7954398 4.0625 6.6875 C3.51722656 6.07261719 2.97195312 5.45773437 2.41015625 4.82421875 C1 3 1 3 0 0 Z " fill="#7E2710" transform="translate(233,293)"/>
<path d="M0 0 C2.31 0 4.62 0 7 0 C6.195625 0.61875 5.39125 1.2375 4.5625 1.875 C1.96125481 3.74164041 1.96125481 3.74164041 1 6 C-0.32 5.67 -1.64 5.34 -3 5 C-2.01 5 -1.02 5 0 5 C0 3.35 0 1.7 0 0 Z " fill="#CA4720" transform="translate(281,148)"/>
<path d="M0 0 C2.71843438 3.62457917 3.41789544 4.80884715 4 9 C3.01 9.33 2.02 9.66 1 10 C0.67 6.7 0.34 3.4 0 0 Z " fill="#CF3A0C" transform="translate(315,281)"/>
<path d="M0 0 C1.98 0.66 3.96 1.32 6 2 C4.68 3.32 3.36 4.64 2 6 C0 3 0 3 0 0 Z " fill="#D6461C" transform="translate(202,163)"/>
<path d="M0 0 C3.08089673 2.77280706 4.68775452 5.06326356 6 9 C2.535 7.02 2.535 7.02 -1 5 C-0.67 3.35 -0.34 1.7 0 0 Z " fill="#C84420" transform="translate(378,155)"/>
<path d="M0 0 C2.97 0.495 2.97 0.495 6 1 C3.82575883 3.50037734 2.26954202 4.43628586 -1 5 C-0.67 3.35 -0.34 1.7 0 0 Z " fill="#CE4018" transform="translate(325,386)"/>
<path d="M0 0 C3.465 1.98 3.465 1.98 7 4 C6.67 4.66 6.34 5.32 6 6 C4.02 5.34 2.04 4.68 0 4 C0 2.68 0 1.36 0 0 Z " fill="#97341A" transform="translate(188,321)"/>
<path d="M0 0 C3 1 3 1 5 4 C5 4.99 5 5.98 5 7 C3.68 6.67 2.36 6.34 1 6 C0.67 4.02 0.34 2.04 0 0 Z " fill="#C9380E" transform="translate(220,270)"/>
<path d="M0 0 C1.32 0 2.64 0 4 0 C4.66 1.65 5.32 3.3 6 5 C5.01 5.33 4.02 5.66 3 6 C2.01 4.02 1.02 2.04 0 0 Z " fill="#A1341B" transform="translate(215,268)"/>
<path d="M0 0 C0.2475 0.61875 0.495 1.2375 0.75 1.875 C2.20628639 4.35068687 3.37812506 4.95125002 6 6 C5.67 6.99 5.34 7.98 5 9 C0 3.375 0 3.375 0 0 Z " fill="#FAEDDF" transform="translate(210,226)"/>
<path d="M0 0 C0.66 0.33 1.32 0.66 2 1 C-4.75 5 -4.75 5 -7 5 C-7 4.34 -7 3.68 -7 3 C-4.69631264 1.93347808 -2.35981813 0.93578995 0 0 Z " fill="#D53D13" transform="translate(265,145)"/>
</svg>
